<?xml version="1.0" encoding="utf-8"?>
<!-- Generator: Adobe Illustrator 16.0.0, SVG Export Plug-In . SVG Version: 6.00 Build 0)  -->
<!DOCTYPE svg PUBLIC "-//W3C//DTD SVG 1.1//EN" "http://www.w3.org/Graphics/SVG/1.1/DTD/svg11.dtd">
<svg version="1.1" id="Layer_1" xmlns="http://www.w3.org/2000/svg" xmlns:xlink="http://www.w3.org/1999/xlink" x="0px" y="0px"
	 width="1024px" height="1024px" viewBox="0 0 1024 1024" enable-background="new 0 0 1024 1024" xml:space="preserve">
<g>
	<g>
		<path d="M160,928h704V352H160V928z M735.9,480h64.1V544h-64.1V480z M735.9,608h64.1V672h-64.1V608z M735.9,735.9h64.1V800h-64.1
			V735.9z M607.9,480h64.1V544h-64.1V480z M607.9,608h64.1V672h-64.1V608z M607.9,735.9h64.1V800h-64.1V735.9z M479.9,480H544V544
			h-64.1V480L479.9,480z M479.9,608H544V672h-64.1V608L479.9,608z M479.9,735.9H544V800h-64.1V735.9L479.9,735.9z M351.9,480H416
			V544h-64.1V480z M351.9,608H416V672h-64.1V608z M351.9,735.9H416V800h-64.1V735.9z M223.9,480H288V544h-64.1V480z M223.9,608H288
			V672h-64.1V608z M223.9,735.9H288V800h-64.1V735.9z M735.9,160.1V96h-64.1v64.1H351.9V96h-64.1v64.1H160v128h704v-128H735.9z"/>
	</g>
</g>
</svg>
