<?xml version="1.0" encoding="utf-8"?>
<!-- Generator: Adobe Illustrator 16.0.0, SVG Export Plug-In . SVG Version: 6.00 Build 0)  -->
<!DOCTYPE svg PUBLIC "-//W3C//DTD SVG 1.1//EN" "http://www.w3.org/Graphics/SVG/1.1/DTD/svg11.dtd">
<svg version="1.1" id="Layer_1" xmlns="http://www.w3.org/2000/svg" xmlns:xlink="http://www.w3.org/1999/xlink" x="0px" y="0px"
	 width="1024px" height="1024px" viewBox="0 0 1024 1024" enable-background="new 0 0 1024 1024" xml:space="preserve">
<g>
	<g>
		<path d="M670.8,811.8c-4.8,12.2-16.6,19.6-29.8,19.6s-24.8-8.2-29.8-20.4L385,245.4L286.8,492c-4.8,12.2-16.6,21-29.8,21H1v384
			c0,70.6,57.4,128,128,128h768c70.6,0,128-57.4,128-128V513H790.6L670.8,811.8z M897,1H129C58.4,1,1,58.2,1,129v320h234.4
			l120-300.8c9.8-24.4,49.6-24.8,59.4-0.4L641,713.2l98.2-245C744,456,755.8,449,769,449h256V129C1025,58.2,967.6,1,897,1z"/>
	</g>
</g>
</svg>
