<?xml version="1.0" encoding="utf-8"?>
<!-- Generator: Adobe Illustrator 16.0.0, SVG Export Plug-In . SVG Version: 6.00 Build 0)  -->
<!DOCTYPE svg PUBLIC "-//W3C//DTD SVG 1.1//EN" "http://www.w3.org/Graphics/SVG/1.1/DTD/svg11.dtd">
<svg version="1.1" id="Layer_1" xmlns="http://www.w3.org/2000/svg" xmlns:xlink="http://www.w3.org/1999/xlink" x="0px" y="0px"
	 width="1024px" height="1024px" viewBox="0 0 1024 1024" enable-background="new 0 0 1024 1024" xml:space="preserve">
<polygon points="192,480 320,480 320,544 384,544 384,608 448,608 448,544 512,544 512,480 576,480 576,416 640,416 640,352 
	704,352 704,288 768,288 768,224 832,224 832,416 768,416 768,480 704,480 704,544 640,544 640,608 576,608 576,672 512,672 
	512,736 448,736 448,800 384,800 384,736 320,736 320,672 256,672 256,608 192,608 "/>
</svg>
