<?xml version="1.0" encoding="utf-8"?>
<!-- Generator: Adobe Illustrator 16.0.0, SVG Export Plug-In . SVG Version: 6.00 Build 0)  -->
<!DOCTYPE svg PUBLIC "-//W3C//DTD SVG 1.1//EN" "http://www.w3.org/Graphics/SVG/1.1/DTD/svg11.dtd">
<svg version="1.1" id="Layer_1" xmlns="http://www.w3.org/2000/svg" xmlns:xlink="http://www.w3.org/1999/xlink" x="0px" y="0px"
	 width="1024px" height="1024px" viewBox="0 0 1024 1024" enable-background="new 0 0 1024 1024" xml:space="preserve">
<polygon points="896,224 896,160 832,160 832,224 768,224 768,288 704,288 704,352 640,352 640,416 576,416 576,480 512,480 
	512,544 448,544 448,608 384,608 384,672 320,672 320,608 256,608 256,544 192,544 192,480 128,480 128,544 64,544 64,608 128,608 
	128,672 192,672 192,736 256,736 256,800 320,800 320,864 384,864 384,800 448,800 448,736 512,736 512,672 576,672 576,608 
	640,608 640,544 704,544 704,480 768,480 768,416 832,416 832,352 896,352 896,288 960,288 960,224 "/>
</svg>
