<?xml version="1.0" encoding="utf-8"?>
<!-- Generator: Adobe Illustrator 16.0.0, SVG Export Plug-In . SVG Version: 6.00 Build 0)  -->
<!DOCTYPE svg PUBLIC "-//W3C//DTD SVG 1.1//EN" "http://www.w3.org/Graphics/SVG/1.1/DTD/svg11.dtd">
<svg version="1.1" id="Layer_1" xmlns="http://www.w3.org/2000/svg" xmlns:xlink="http://www.w3.org/1999/xlink" x="0px" y="0px"
	 width="1024px" height="1024px" viewBox="0 0 1024 1024" enable-background="new 0 0 1024 1024" xml:space="preserve">
<path d="M704,576v64.1h64v64h64.1v64.1h64v64H960v68.1l-64-4V960h-64.1v-64h-64v-64.1h-64.1v-64h-64v-64.1h-64v-64H447.8v64h-64
	v64.1h-64.1v64h-64.1V896h-63.7v64h-63.9v-64H64v-64.1h64.1v-64h64.1v-64.1h64v-64h64.1v-64h64.1V447.8h-64.1v-64h-64.1v-64.1h-64.2
	v-64.1h-63.9v-63.7H64V130l64.1-1.9V64h64.1v64.1h64v64.1h64.1v64h64.1v64.1h64.1v64.1h127.9v-64.1h64v-64.1h64.1v-64.2h64v-63.9h64
	V64h64.1v64.1H960v64.1h-64v64h-64.1v64.1h-64v64.1h-64.1v64.1h-64v127.9H704V576z"/>
</svg>
