<?xml version="1.0" encoding="utf-8"?>
<!-- Generator: Adobe Illustrator 16.0.0, SVG Export Plug-In . SVG Version: 6.00 Build 0)  -->
<!DOCTYPE svg PUBLIC "-//W3C//DTD SVG 1.1//EN" "http://www.w3.org/Graphics/SVG/1.1/DTD/svg11.dtd">
<svg version="1.1" id="Layer_1" xmlns="http://www.w3.org/2000/svg" xmlns:xlink="http://www.w3.org/1999/xlink" x="0px" y="0px"
	 width="1024px" height="1024px" viewBox="0 0 1024 1024" enable-background="new 0 0 1024 1024" xml:space="preserve">
<g>
	<path d="M576,1024H448V890.6c-24.2-4-47.6-10.4-70-18.8l-66.6,115.4l-110.8-64l66.8-115.6c-18.6-15.4-35.8-32.6-51-51l-115.6,66.8
		l-64-110.8L152,645.8c-8.4-22.4-14.6-45.8-18.8-69.8H0V448h133.4c4-24.2,10.4-47.6,18.8-70L36.6,311.4l64-110.8l115.6,66.8
		c15.4-18.6,32.6-35.6,51-51l-66.8-115.6l110.8-64L378,152c22.4-8.4,45.8-14.6,70-18.8V0h128v133.4c24.2,4,47.6,10.4,69.8,18.8
		l66.6-115.6l110.8,64l-66.8,115.6c18.6,15.4,35.6,32.6,51,51L923,200.4l64,110.8L872,378c8.4,22.4,14.6,45.8,18.8,70H1024v128
		H890.6c-4,24.2-10.4,47.6-18.8,69.8l115.4,66.6l-64,110.8l-115.6-66.8c-15.4,18.6-32.6,35.6-51,51L823.4,923l-110.8,64l-66.8-115
		c-22.4,8.4-45.8,14.6-69.8,18.8V1024z M512,256c-141.2,0-256,114.8-256,256c0,141.2,114.8,256,256,256c141.2,0,256-114.8,256-256
		C768,370.8,653.2,256,512,256z"/>
</g>
</svg>
