<?xml version="1.0" encoding="utf-8"?>
<!-- Generator: Adobe Illustrator 16.0.0, SVG Export Plug-In . SVG Version: 6.00 Build 0)  -->
<!DOCTYPE svg PUBLIC "-//W3C//DTD SVG 1.1//EN" "http://www.w3.org/Graphics/SVG/1.1/DTD/svg11.dtd">
<svg version="1.1" id="Layer_1" xmlns="http://www.w3.org/2000/svg" xmlns:xlink="http://www.w3.org/1999/xlink" x="0px" y="0px"
	 width="1024px" height="1024px" viewBox="0 0 1024 1024" enable-background="new 0 0 1024 1024" xml:space="preserve">
<path d="M791.1,273.5l127.5-130.1l-45.2-46.2L733.3,240.1c-64.6-32.4-138.5-54.4-221.3-54.4C192.1,185.7,0,512,0,512
	s84,141.9,232.9,238.5L105.4,880.5l45.2,46.2l140.1-142.9c64.6,32.4,138.5,54.4,221.3,54.4c319.9,0,512-326.3,512-326.3
	S940,370.1,791.1,273.5z M664.7,675.9c-79,80.6-202.5,87.4-290.1,22.2l45.6-46.4c62,40.4,145.1,33.2,199.3-22
	c54-55.2,61-140.1,21.4-203.1l45.6-46.4C750.5,469.4,743.7,595.2,664.7,675.9z M77.6,511.8C122.4,450,231.3,320.1,387,270.7
	l19.6,40.2c75.2-38.2,166.9-31,235.5,22.2l-45.6,46.6c-48.2-33.4-110-36.8-161.3-10.8l57.2,116.8l-14,14.2l-114.4-58.2
	c-25.6,52.2-22.2,115.4,10.4,164.5l-45.6,46.6c-52.2-69.8-59.2-163.3-21.8-240.1l-57-29.2c-49.6,101.2-38.6,224.7,33.6,315.3l-4,4
	C181.3,642.7,111.2,558.2,77.6,511.8z M707.3,724.3c0.8-0.8,1.8-1.4,2.8-2.2c104-106.2,110.6-272.9,21.8-388.2l12.8-13
	C842.9,381.3,913,465.8,946.6,512C908.8,564.2,825.5,664.3,707.3,724.3z"/>
</svg>
