<?xml version="1.0" encoding="utf-8"?>
<!-- Generator: Adobe Illustrator 16.0.0, SVG Export Plug-In . SVG Version: 6.00 Build 0)  -->
<!DOCTYPE svg PUBLIC "-//W3C//DTD SVG 1.1//EN" "http://www.w3.org/Graphics/SVG/1.1/DTD/svg11.dtd">
<svg version="1.1" id="Layer_1" xmlns="http://www.w3.org/2000/svg" xmlns:xlink="http://www.w3.org/1999/xlink" x="0px" y="0px"
	 width="1024px" height="1024px" viewBox="0 0 1024 1024" enable-background="new 0 0 1024 1024" xml:space="preserve">
<path d="M512,256c221.4,0,378.4,180.4,434.4,256C890.6,588,734.6,768,512,768c-221.4,0-378.4-180.4-434.4-256
	C133.4,436,289.4,256,512,256 M512,192C192,192,0,512,0,512s192,320,512,320s512-320,512-320S832,192,512,192L512,192z M619.4,401.2
	c62.4,62.4,62.4,163.8,0,226.2s-163.8,62.4-226.2,0c-50-50-59.2-124.4-29.4-184.4l142.4,71.2L435,371.8
	C495,342,569.6,351.2,619.4,401.2z M378.2,258l28.4,57c83.8-41.8,188.2-28.8,258,41c87.4,87.4,87.4,229.4,0,316.8
	c-87.4,87.4-229.4,87.4-316.8,0c-69.8-69.8-82.8-174.2-41-258L250,386.2C196,494,212.8,628,302.8,718
	c112.4,112.4,294.8,112.4,407.2,0s112.4-294.8,0-407.2C620,220.8,486,204,378.2,258z"/>
</svg>
