<?xml version="1.0" encoding="utf-8"?>
<!-- Generator: Adobe Illustrator 16.0.0, SVG Export Plug-In . SVG Version: 6.00 Build 0)  -->
<!DOCTYPE svg PUBLIC "-//W3C//DTD SVG 1.1//EN" "http://www.w3.org/Graphics/SVG/1.1/DTD/svg11.dtd">
<svg version="1.1" id="Layer_1" xmlns="http://www.w3.org/2000/svg" xmlns:xlink="http://www.w3.org/1999/xlink" x="0px" y="0px"
	 width="1024px" height="1024px" viewBox="0 0 1024 1024" enable-background="new 0 0 1024 1024" xml:space="preserve">
<path d="M896,992H128V32h768V992L896,992z M191.9,928.1h639.9V95.9H191.9V928.1z M767.9,160.1H256.1V224h512.1v-63.9H767.9z
	 M767.9,416H256.1v63.9h512.1V416H767.9z M767.9,544.1H256.1V608h512.1v-63.9H767.9z M767.9,671.9H256.1v63.9h512.1v-63.9H767.9z
	 M767.9,800H256.1v63.9h512.1V800H767.9z M767.9,287.9H256.1v63.9h512.1v-63.9H767.9z"/>
</svg>
