<?xml version="1.0" encoding="utf-8"?>
<!-- Generator: Adobe Illustrator 16.0.0, SVG Export Plug-In . SVG Version: 6.00 Build 0)  -->
<!DOCTYPE svg PUBLIC "-//W3C//DTD SVG 1.1//EN" "http://www.w3.org/Graphics/SVG/1.1/DTD/svg11.dtd">
<svg version="1.1" id="Layer_1" xmlns="http://www.w3.org/2000/svg" xmlns:xlink="http://www.w3.org/1999/xlink" x="0px" y="0px"
	 width="1024px" height="1024px" viewBox="0 0 1024 1024" enable-background="new 0 0 1024 1024" xml:space="preserve">
<g>
	<path d="M633.9,0H97.5v1024h828.9V292.5L633.9,0z M633.9,73l219.5,219.5H633.9V73z M877.8,975.2H146.4V48.8h439v292.5h292.5V975.2z
		 M536.5,195.1H244v48.8h292.5V195.1z M536.5,292.5H244v48.8h292.5V292.5z M244,438.8h536.2V390H244V438.8z M244,536.4h536.2v-48.8
		H244V536.4z M244,633.8h536.2V585H244V633.8z M244,731.5h536.2v-48.8H244V731.5z M244,828.9h536.2v-48.8H244V828.9z"/>
</g>
</svg>
