<?xml version="1.0" encoding="utf-8"?>
<!-- Generator: Adobe Illustrator 16.0.0, SVG Export Plug-In . SVG Version: 6.00 Build 0)  -->
<!DOCTYPE svg PUBLIC "-//W3C//DTD SVG 1.1//EN" "http://www.w3.org/Graphics/SVG/1.1/DTD/svg11.dtd">
<svg version="1.1" id="Layer_1" xmlns="http://www.w3.org/2000/svg" xmlns:xlink="http://www.w3.org/1999/xlink" x="0px" y="0px"
	 width="1024px" height="1024px" viewBox="0 0 1024 1024" enable-background="new 0 0 1024 1024" xml:space="preserve">
<path d="M754.5,404.2l161.7-161.7l53.9,53.9l53.9-53.9L808.4,27.1l-53.9,53.7l53.9,53.9L646.7,296.4L538.9,134.7l-53.9,53.9
	l107.8,107.8l-431,431.2v107.8L0,996.9h53.9l107.8-107.8h161.7l431-431l107.8,107.8l53.9-53.9L754.5,404.2z M808.4,188.6l53.9,53.9
	L700.6,404.2l-53.9-53.9L808.4,188.6z M323.4,835.4H213l2.6,1.8V729.4l17.6-22.4l35.9,38.1L306,707l-38.7-38.1l37.9-38.1l76.1,76.1
	l38.1-38.1l-76.1-76.1l38.1-38.1l38.1,38.1l38.1-38.1l-38.1-38.1l38.1-38.1l76.4,76.1l38.1-38.1l-76.4-76.1l38.1-38.1l38.1,38.1
	l38.1-38.1l-38.1-38.1l21.2-13.8l107.8,107.8L323.4,835.4z"/>
</svg>
