<?xml version="1.0" encoding="utf-8"?>
<!-- Generator: Adobe Illustrator 16.0.0, SVG Export Plug-In . SVG Version: 6.00 Build 0)  -->
<!DOCTYPE svg PUBLIC "-//W3C//DTD SVG 1.1//EN" "http://www.w3.org/Graphics/SVG/1.1/DTD/svg11.dtd">
<svg version="1.1" id="Layer_1" xmlns="http://www.w3.org/2000/svg" xmlns:xlink="http://www.w3.org/1999/xlink" x="0px" y="0px"
	 width="1024px" height="1024px" viewBox="0 0 1024 1024" enable-background="new 0 0 1024 1024" xml:space="preserve">
<path d="M768,447.9v-51.1c0.2,0,0.2-268.8-255.9-268.8c-256,0-256,268.8-256,268.8v51.1c-35.2,0-64,28.8-64,64.1v319.9
	c0,35.3,28.8,64.1,64,64.1H768c35.2,0,64-28.8,64-64.1V512C832,476.8,803.2,447.9,768,447.9z M320.1,397.1c0.1-21,7.3-205,192-205
	c184.6,0,191.8,184.2,192,204.8v51.1h-384V397.1z"/>
</svg>
