<?xml version="1.0" encoding="utf-8"?>
<!-- Generator: Adobe Illustrator 16.0.0, SVG Export Plug-In . SVG Version: 6.00 Build 0)  -->
<!DOCTYPE svg PUBLIC "-//W3C//DTD SVG 1.1//EN" "http://www.w3.org/Graphics/SVG/1.1/DTD/svg11.dtd">
<svg version="1.1" id="Layer_1" xmlns="http://www.w3.org/2000/svg" xmlns:xlink="http://www.w3.org/1999/xlink" x="0px" y="0px"
	 width="1024px" height="1024px" viewBox="0 0 1024 1024" enable-background="new 0 0 1024 1024" xml:space="preserve">
<path d="M961.8,62.2L961.8,62.2c-82.9-82.9-217-82.9-299.9,0L62.2,661.9c-82.9,82.9-82.9,217,0,299.9c82.9,82.9,217.2,82.9,299.9,0
	l299.9-299.9l299.9-299.9C1044.7,279.2,1044.7,145,961.8,62.2 M916.6,316.8L616.7,616.7L407.3,407.3l299.9-299.9
	c28-28,65.2-43.4,104.6-43.4c39.6,0,76.6,15.3,104.6,43.4C974.3,165.1,974.3,259.1,916.6,316.8"/>
</svg>
