<?xml version="1.0" encoding="utf-8"?>
<!-- Generator: Adobe Illustrator 16.0.0, SVG Export Plug-In . SVG Version: 6.00 Build 0)  -->
<!DOCTYPE svg PUBLIC "-//W3C//DTD SVG 1.1//EN" "http://www.w3.org/Graphics/SVG/1.1/DTD/svg11.dtd">
<svg version="1.1" id="Layer_1" xmlns="http://www.w3.org/2000/svg" xmlns:xlink="http://www.w3.org/1999/xlink" x="0px" y="0px"
	 width="1024px" height="1024px" viewBox="0 0 1024 1024" enable-background="new 0 0 1024 1024" xml:space="preserve">
<g>
	<path d="M512,928c-211.7,0-384-172.3-384-384c0-51.7,10.2-102.1,30.2-149.5c19.3-45.8,47.1-86.8,82.2-122
		c35.3-35.3,76.4-62.9,122-82.2l49.9,117.8C382,320.9,354.5,339.4,331,363c-23.6,23.6-41.9,50.9-54.9,81.4
		c-13.3,31.5-20.2,65.2-20.2,99.6c0,141.2,114.9,255.9,255.9,255.9c141.2,0,255.9-114.7,255.9-255.9c0-34.5-6.8-68.1-20.2-99.8
		c-13-30.4-31.4-57.8-54.8-81.3c-23.6-23.7-50.9-42.1-81.4-54.9l50.1-117.8c45.8,19.3,86.8,47.1,122,82.4
		c35.1,34.9,62.7,76,82.2,121.9c20.1,47.8,30.2,98,30.2,149.7C896,755.8,723.7,928,512,928z M576,544H448V96H576V544z"/>
</g>
</svg>
