<?xml version="1.0" encoding="utf-8"?>
<!-- Generator: Adobe Illustrator 16.0.0, SVG Export Plug-In . SVG Version: 6.00 Build 0)  -->
<!DOCTYPE svg PUBLIC "-//W3C//DTD SVG 1.1//EN" "http://www.w3.org/Graphics/SVG/1.1/DTD/svg11.dtd">
<svg version="1.1" id="Layer_1" xmlns="http://www.w3.org/2000/svg" xmlns:xlink="http://www.w3.org/1999/xlink" x="0px" y="0px"
	 width="1024px" height="1024px" viewBox="0 0 1024 1024" enable-background="new 0 0 1024 1024" xml:space="preserve">
<path d="M341.3,716.8h341.3v51.1H341.3V716.8z M1024,409.5v256.1c0,0,0,51.2-56.8,51.2H796.5v153.6h-569V716.8H56.8
	C0,716.8,0,665.6,0,665.6V409.5c0,0,0-51.1,56.8-51.1h113.8v-51.1h56.8V153.6h341.3h227.5v153.6h56.8v51.1H967
	C1024,358.4,1024,409.5,1024,409.5 M284.5,409.5h455.2V204.7H284.5V409.5z M739.5,563.1h-455v256.1h455.2V563.1H739.5z M341.3,665.6
	h341.3v-51.1H341.3V665.6z"/>
</svg>
