<?xml version="1.0" encoding="utf-8"?>
<!-- Generator: Adobe Illustrator 16.0.0, SVG Export Plug-In . SVG Version: 6.00 Build 0)  -->
<!DOCTYPE svg PUBLIC "-//W3C//DTD SVG 1.1//EN" "http://www.w3.org/Graphics/SVG/1.1/DTD/svg11.dtd">
<svg version="1.1" id="Layer_1" xmlns="http://www.w3.org/2000/svg" xmlns:xlink="http://www.w3.org/1999/xlink" x="0px" y="0px"
	 width="1024px" height="1024px" viewBox="0 0 1024 1024" enable-background="new 0 0 1024 1024" xml:space="preserve">
<path d="M512,0C229.2,0,0,229.2,0,512c0,282.8,229.2,512,512,512c282.8,0,512-229.2,512-512C1024,229.2,794.8,0,512,0z M512,832
	c-35.4,0-64-28.6-64-64s28.6-64,64-64s64,28.6,64,64S547.4,832,512,832z M605.4,579.4c-9.2,7.4-22.4,17.8-29.4,24.8V640H448v-48
	c0-50.6,39.4-82,77.4-112.4c31.2-25,66.6-53.4,66.6-79.4c0-51.6,0-80-80-80c-73.8,0-79.8,61.6-80,80.4l-128-0.8
	c0.6-83.6,56.4-207.8,208-207.8c94.8,0,208,36,208,208C720,487.6,651,543,605.4,579.4z"/>
</svg>
