<?xml version="1.0" encoding="utf-8"?>
<!-- Generator: Adobe Illustrator 16.0.0, SVG Export Plug-In . SVG Version: 6.00 Build 0)  -->
<!DOCTYPE svg PUBLIC "-//W3C//DTD SVG 1.1//EN" "http://www.w3.org/Graphics/SVG/1.1/DTD/svg11.dtd">
<svg version="1.1" id="Layer_1" xmlns="http://www.w3.org/2000/svg" xmlns:xlink="http://www.w3.org/1999/xlink" x="0px" y="0px"
	 width="1024px" height="1024px" viewBox="0 0 1024 1024" enable-background="new 0 0 1024 1024" xml:space="preserve">
<path d="M310.8,310.8C364.6,257,436,227.4,512,227.4s147.4,29.6,201.2,83.4l80.4-80.4C718.4,155.2,618.4,113.8,512,113.8
	s-206.4,41.4-281.6,116.6C155.2,305.6,113.8,405.6,113.8,512h113.8C227.6,436,257.2,364.6,310.8,310.8z M0,512l170.6,170.6
	L341.2,512H0z M793.6,793.6c75.2-75.2,116.6-175.2,116.6-281.6H796.4c0,76-29.6,147.4-83.4,201.2c-53.8,53.8-125.2,83.4-201.2,83.4
	c-76,0-147.4-29.6-201.2-83.4l-80.4,80.4c75.2,75.2,175.2,116.6,281.6,116.6C618.4,910.2,718.4,868.8,793.6,793.6z M1024,512
	L853.4,341.4L682.6,512H1024z"/>
</svg>
