<?xml version="1.0" encoding="utf-8"?>
<!-- Generator: Adobe Illustrator 16.0.0, SVG Export Plug-In . SVG Version: 6.00 Build 0)  -->
<!DOCTYPE svg PUBLIC "-//W3C//DTD SVG 1.1//EN" "http://www.w3.org/Graphics/SVG/1.1/DTD/svg11.dtd">
<svg version="1.1" id="Layer_1" xmlns="http://www.w3.org/2000/svg" xmlns:xlink="http://www.w3.org/1999/xlink" x="0px" y="0px"
	 width="1024px" height="1024px" viewBox="0 0 1024 1024" enable-background="new 0 0 1024 1024" xml:space="preserve">
<path d="M0,0v903.8h363.2c-23.4-36.4-40.8-77-51-120.4H120.4v-60.2h182.2c-0.8-10-1.6-20-1.6-30.2c0-10.2,0.8-20.2,1.6-30.2H120.4
	v-60.2H312c5-20.8,11.2-41,19.2-60.2H120.4v-60.2H363c13.8-21.6,29.8-41.8,47.4-60.2h-290v-60.2h364.2c60.4-38,131.4-60.2,208-60.2
	c10.2,0,20.2,0.8,30.2,1.6V0H0z M602.4,301.3h-482V241h481.8v60.2H602.4z M602.4,180.8h-482v-60.4h481.8v60.4H602.4z M692.8,361.5
	c-183,0-331.2,148.4-331.2,331.3c0,183,148.4,331.3,331.2,331.3c183,0,331.2-148.4,331.2-331.3C1024,509.9,875.6,361.5,692.8,361.5z
	 M692.8,964c-149.4,0-271-121.6-271-271.1c0-149.4,121.6-271.1,271-271.1c149.4,0,271,121.6,271,271.1
	C963.8,842.4,842.2,964,692.8,964z M722.8,481.9h-60.2v241h241v-60.2H722.8V481.9z"/>
</svg>
