<?xml version="1.0" encoding="utf-8"?>
<!-- Generator: Adobe Illustrator 16.0.0, SVG Export Plug-In . SVG Version: 6.00 Build 0)  -->
<!DOCTYPE svg PUBLIC "-//W3C//DTD SVG 1.1//EN" "http://www.w3.org/Graphics/SVG/1.1/DTD/svg11.dtd">
<svg version="1.1" id="Layer_1" xmlns="http://www.w3.org/2000/svg" xmlns:xlink="http://www.w3.org/1999/xlink" x="0px" y="0px"
	 width="1024px" height="1024px" viewBox="0 0 1024 1024" enable-background="new 0 0 1024 1024" xml:space="preserve">
<g>
	<path d="M98.4,1024L0,925.4l265.9-265.9c-48.6-68.2-77.4-151.8-77.4-241.8C188.5,187.4,375.9,0,606.2,0
		C836.7,0,1024,187.4,1024,417.7c0,230.4-187.5,417.7-417.8,417.7c-90,0-173.7-28.6-241.9-77.4L98.4,1024z M606.2,139.2
		c-153.7,0-278.5,125-278.5,278.5c0,153.6,125,278.5,278.5,278.5c153.7,0,278.5-125,278.5-278.5
		C884.7,264.1,759.9,139.2,606.2,139.2z"/>
</g>
</svg>
