<?xml version="1.0" encoding="utf-8"?>
<!-- Generator: Adobe Illustrator 16.0.0, SVG Export Plug-In . SVG Version: 6.00 Build 0)  -->
<!DOCTYPE svg PUBLIC "-//W3C//DTD SVG 1.1//EN" "http://www.w3.org/Graphics/SVG/1.1/DTD/svg11.dtd">
<svg version="1.1" id="Layer_1" xmlns="http://www.w3.org/2000/svg" xmlns:xlink="http://www.w3.org/1999/xlink" x="0px" y="0px"
	 width="1024px" height="1024px" viewBox="0 0 1024 1024" enable-background="new 0 0 1024 1024" xml:space="preserve">
<path d="M511.9,201.2L579.3,402l14.6,43.6h46h202.1L663.8,588.8L629,616.6l14,42.2l63.2,190.4L550.3,731.6l-38.4-29l-38.6,29
	L317.4,849.2l63.2-190.4l14-42.2L360,588.8l-178.1-143H384h46l14.6-43.6L511.9,201.2 M511.9,0L384,381.8H0l320,257L191.9,1024
	l320-241.2l320,241.2L704,638.6l320-257H639.8L511.9,0L511.9,0z"/>
</svg>
