<?xml version="1.0" encoding="utf-8"?>
<!-- Generator: Adobe Illustrator 16.0.0, SVG Export Plug-In . SVG Version: 6.00 Build 0)  -->
<!DOCTYPE svg PUBLIC "-//W3C//DTD SVG 1.1//EN" "http://www.w3.org/Graphics/SVG/1.1/DTD/svg11.dtd">
<svg version="1.1" id="Layer_1" xmlns="http://www.w3.org/2000/svg" xmlns:xlink="http://www.w3.org/1999/xlink" x="0px" y="0px"
	 width="1024px" height="1024px" viewBox="0 0 1024 1024" enable-background="new 0 0 1024 1024" xml:space="preserve">
<path d="M864,512.1c0,88.2-34.4,171.3-96.8,233.6s-167.5,96.8-233.6,96.8V710.3c132.2,0,198.2-92.4,198.2-198.2
	c0-53-20.6-102.7-58.1-140.3c-37.4-37.4-87.1-58-140.1-58s-102.7,20.6-140.1,58l93.5,93.5L160,512.1L206.7,185l93.5,93.3
	c62.4-62.4,145.2-96.6,233.6-96.8c88.2,0,171.3,34.4,233.6,96.8C829.7,340.7,864,423.7,864,512.1"/>
</svg>
