<?xml version="1.0" encoding="utf-8"?>
<!-- Generator: Adobe Illustrator 16.0.0, SVG Export Plug-In . SVG Version: 6.00 Build 0)  -->
<!DOCTYPE svg PUBLIC "-//W3C//DTD SVG 1.1//EN" "http://www.w3.org/Graphics/SVG/1.1/DTD/svg11.dtd">
<svg version="1.1" id="Layer_1" xmlns="http://www.w3.org/2000/svg" xmlns:xlink="http://www.w3.org/1999/xlink" x="0px" y="0px"
	 width="1024px" height="1024px" viewBox="0 0 1024 1024" enable-background="new 0 0 1024 1024" xml:space="preserve">
<path d="M358.4,259.6c0,72.8-38.8,175.6-102.4,175.6S153.6,332.4,153.6,259.6C153.6,187,192.4,128,256,128S358.4,187,358.4,259.6z
	 M870.4,435.2c0,0-64,51.2-102.4,51.2s-102.4-51.2-102.4-51.2s-0.6,0-1.2,0c-2.6,33.6-10.8,70.6-25.6,104
	c80.2,9.8,180.4,67.4,180.4,203.2l0,0H1024c0,0,0-100,0-153.6C1024,435.2,870.4,435.2,870.4,435.2z M204.8,742.4
	c0-136,100.2-193.6,180.4-203.4c-14.8-33.4-23-52.8-25.6-104c-0.6,0-1.2,0-1.2,0s-64,51.2-102.4,51.2S153.6,435,153.6,435
	S0,435.2,0,588.8C0,640,0,742.4,0,742.4H204.8L204.8,742.4z M870.4,259.6c0,72.8-38.8,175.6-102.4,175.6S665.6,332.4,665.6,259.6
	c0-72.8,38.8-131.6,102.4-131.6S870.4,187,870.4,259.6z M512,640c-38.4,0-102.4-51.2-102.4-51.2S256,588.8,256,742.4
	c0,51.2,0,153.6,0,153.6h512c0,0,0-100.8,0-153.6c0-153.6-153.6-153.6-153.6-153.6S550.4,640,512,640z M614.4,413.2
	c0,72.8-38.8,175.6-102.4,175.6S409.6,486,409.6,413.2S448.4,281.6,512,281.6S614.4,340.6,614.4,413.2z"/>
</svg>
