<?xml version="1.0" encoding="utf-8"?>
<!-- Generator: Adobe Illustrator 16.0.0, SVG Export Plug-In . SVG Version: 6.00 Build 0)  -->
<!DOCTYPE svg PUBLIC "-//W3C//DTD SVG 1.1//EN" "http://www.w3.org/Graphics/SVG/1.1/DTD/svg11.dtd">
<svg version="1.1" id="Layer_1" xmlns="http://www.w3.org/2000/svg" xmlns:xlink="http://www.w3.org/1999/xlink" x="0px" y="0px"
	 width="1024px" height="1024px" viewBox="0 0 1024 1024" enable-background="new 0 0 1024 1024" xml:space="preserve">
<path d="M512,64c247,0,448,201,448,448S759,960,512,960S64,759,64,512S265,64,512,64 M512,0C229.4,0,0,229.4,0,512
	s229.2,512,512,512c282.8,0,512-229.2,512-512C1024,229.2,794.6,0,512,0 M576,832H448V704h128V832z M576,640H448V192h128V640z"/>
</svg>
